<svg xmlns="http://www.w3.org/2000/svg" viewBox="0 0 128 128">
  <path fill="#010101" d="M44.44 100.63c-4.23-3.33-8.27-6.7-12.07-10.32a240.72 240.72 0 01-11.77-12.65c-3.44-4.05-6.66-8.27-9.45-12.78-2.89-4.68-5.08-9.7-7.55-14.55-2.11-4.15-2.92-8.68-3.58-13.23-.45-3.18-1-6.37-1.52-9.55.74 0 1.36-.05 2 0a6.78 6.78 0 6.57-3.42c.35-2.16.48-4.35.9-6.49.91-4.58 4-6.39 8.63-7 3.89-.49 7.8-.9 11.7-1.35l2.89-.36.4-.1-.05-2c1.34 0 2.69-.16 4 0 2.7.37 5.36 1 8.09 1.28a68 68 0 0021.5-1c2.33-.39 4.73-.35 7.11-.31 1.46 0 3 .79 4.34.48 2.8-.66 5.5-1.78 8.3-2.55 2.34-.65 4.76-1 7.17-1.4a11.35 11.35 0 0116 .7c1.5 1.46 3.12 2.79 4.54 4.31a27.25 27.25 0 015.68 10.55c.4 1.47.82 2.95 1.28 4.4 2.15 6.76 2.92 13.69 3 20.73 0 1.28.22 2.56.35 3.84a1.8 1.8 0 00.74 1.44c.9.54.7.93.12 1.59-1.39 1.55-1.32 3.57-1.87 5.5-1.83 6.26-5.18 11.4-9.94 15.75-6.35 5.82-13.63 10.26-21 14.53-5.45 3.15-11.43 5.09-17.57 6.39-3.34.71-6.71 1.3-10.11 1.57-7.64.61-15 .32-21.87-3.15-3.56-1.8-7.05-3.71-10.57-5.58z"/>
  <path fill="#4d9cd3" d="M58.27 125.62c-1.41-.44-2.81-.89-4.22-1.33-8.52-2.64-16.3-6.75-23.62-11.84-5.71-4-10.95-8.46-15.37-13.82-5.54-6.7-9.45-14.19-11.33-22.89a27.79 27.79 0 01-.76-9.33c.2-2.17.72-4.31 1.11-6.46q.87-4.92 1.78-9.84c.23-1.31.5-2.62.7-3.94.47-3.13.93-6.27 1.33-9.42.77-6.12 2.67-11.81 5.85-17.08 2.31-3.83 5.17-7.24 8.55-10.31 5.3-4.81 11.42-8.25 18.05-10.95a35.65 35.65 0 0113.9-2.43 47.17 47.17 0 0120.29 5.44 65.79 65.79 0 0116.36 12.09 8.56 8.56 0 13.54-1A16.47 16.47 0 10097 6.08c.2-.16.47-.42.5-.67.21-1.33.37-2.67.54-4a.85.85 0 00-.13-.31c-2.2-2.37-4.28-4.86-6.55-7.16-4.51-4.56-10-7.15-16.4-7.76-1.14-.11-2.27-.45-3.42-.43a34.72 34.72 0 00-10.26 2 91.77 91.77 0 00-12.1 5.2c-9.69 5.06-18.29 11.5-25.47 20.06-4.9 5.84-8.94 12.1-11.38 19.37-.71 2.1-.42 4.44-1.09 6.54-.88 2.8-.79 5.68-.9 8.56a6.42 6.42 0 01-.75 2.2c-1.42 3.05-1.67 6.31-1.95 9.54-.18 2.08-.06 4.19-.09 6.29 0 .42 0 .84 0 1.49l6.71-3.42c.08-1.25.21-2.46.22-3.67a99.57 99.57 0 01.83-13.63c.27-2.19.33-4.43.86-6.57 1.28-5.27 2.8-10.47 4.24-15.7 1.25-4.56 2.47-9.13 3.8-13.67.55-1.86 1.28-3.67 2-5.46a9.79 9.79 0 018.94-6.41c1.11-.05 2.23 0 3.34 0 6.95.14 12.76 2.76 17.61 7.39a49.14 49.14 0 0112.46 17.58c1.38 3.18 3 6.27 4.46 9.42 2.7 5.85 5.28 11.77 8.04 17.57 1.5 3.14 3.25 6.16 5 9.18 1.2 2.08 2.69 4 4.08 6 .45.63 1.08 1.14 1.67 1.75-.19-1.15-.27-2.13-.5-3.07-.37-1.54-.82-3.06-1.3-4.57-1.5-4.68-3.18-9.31-4.53-14-2.67-9.41-5.27-18.82-8.94-27.91-1.65-4.07-3.51-8.05-5.31-12.06a10.34 10.34 0 00-2.34-3.44c-2.82-2.73-5.92-5.19-8.88-7.79-.04-.04-.1-.05-.21-.11 0 .52-.16 1.04-.03 1.49 1.39 5.13 2.8 10.25 4.24 15.36 1.82 6.45 3.68 12.89 5.54 19.32.09.3.49.7.75.7 5.71.1 11.42.15 17.12.16a27.77 27.77 0 017.23.57 4.42 4.42 0 013.66 3.92 6.92 6.92 0 01-1.62 6.65 7.55 7.55 0 01-5.19 2.55c-3.12.2-6.25.12-9.37.09-8.49-.06-17-.2-25.46-.32a4.55 4.55 0 00-3 .85 119.62 119.62 0 00-12 11.77c-4.87 5.49-8.49 11.8-12.62 17.77-2 2.91-4 5.84-6 8.76-1.34 1.93-2.72 3.83-4 5.77a9.84 9.84 0 00-1.57 4.53 15.31 15.31 0 00.41 4.41c1.13 5.67 5.37 8.4 9.86 10.84 6.63 3.61 13.78 5.54 21.08 7 5.69 1.12 11.47 1.61 17.26 1.92 7.93.42 15.81-.13 23.62-1.65a103.67 103.67 0 0021.41-6.55 105.13 105.13 0 0021.94-12.65c5.92-4.58 11.34-9.75 15.42-16.11 3.17-5 5.13-10.41 5.1-16.35-.01-1.3-.7-2.6-1.07-3.86z"/>
</svg> 