<svg xmlns="http://www.w3.org/2000/svg" viewBox="0 0 128 128">
<path fill="#4DAAE4" d="M47.6,63.8h7.2v15.8l20.2-15.8h9.9l-17.9,13.9l19.4,22h-9.5L60.9,83.1l-6.1,4.7v11.8h-7.2V63.8z"/>
<path fill="#4D77CF" d="M42.6,59.4h41.8c2.6,0,4.7,2.1,4.7,4.7v31.4c0,2.6-2.1,4.7-4.7,4.7H42.6c-2.6,0-4.7-2.1-4.7-4.7V64.1
	C37.9,61.5,40,59.4,42.6,59.4z"/>
<path fill="#4DAAE4" d="M80.5,31.1l12.7,2l-7.1,12.3l12.8,0.4l-11.7,5.8l9.1,8.9L85,62.9l3.5,12.8l-10.9-7.2l-3.4,12.8L71,68.9
	l-8.9,9.1l-2.4-13.2l-12.8,3.5l7.2-10.9l-12.8-3.4l12.3-7.1l-9.8-9.5l13.2,2.4l-3.5-12.8l10.9,7.2l3.4-12.8l3.2,12.5l8.9-9.1
	l2.4,13.2L80.5,31.1z"/>
<path fill="#4D77CF" d="M66.3,42.1l1.8-7.3l-4.8,5.1l-1.3-7.1l-1.8,7.3l-6-3.9l4.8,5.1L52.8,45l5.9,1.1l-3.9,6l6.5-1.9l-0.5,7.1
	l4.1-5.7l4.2,5.7l-0.5-7.1l6.5,1.9l-3.9-6l5.9-1.1l-6.1-3.7l4.8-5.1L66.3,42.1z"/>
</svg> 