<svg xmlns="http://www.w3.org/2000/svg" viewBox="0 0 128 128">
  <path fill="#EE4C2C" d="M61.45,0.09l-10.7,8.5l-13.53-0.12c0,0-19.62,24.54-19.62,55.89c0,31.35,21.31,52.56,21.31,52.56l14.89,0.45L64,124l0.17-12.68L41.45,109s-13.8-14.68-13.8-44.64c0-29.96,13.8-44.64,13.8-44.64l22.72-3.84L61.45,0.09z"/>
  <path fill="#EE4C2C" d="M63.99,92.2c0,4.19,3.4,7.59,7.59,7.59c4.19,0,7.59-3.4,7.59-7.59c0-4.19-3.4-7.59-7.59-7.59C67.39,84.61,63.99,88.01,63.99,92.2z"/>
  <path fill="#EE4C2C" d="M86.01,40.51c0,4.19,3.4,7.59,7.59,7.59c4.19,0,7.59-3.4,7.59-7.59c0-4.19-3.4-7.59-7.59-7.59C89.41,32.92,86.01,36.32,86.01,40.51z"/>
  <path fill="#F05732" d="M86.01,35.8l14.99-20.85l12.77,20.85H86.01z"/>
  <path fill="#F05732" d="M83.26,92.2l-19.27,25.19l-3.08-25.19H83.26z"/>
  <path fill="#F05732" d="M71.58,40.51L63.99,12.28L93.6,40.51H71.58z"/>
  <path fill="#F15A29" d="M77.88,78.48c-0.46,0-0.93,0.04-1.4,0.11c11.77-7.01,19.58-20.86,19.58-36.41c0-21.54-15.89-40.23-38.07-40.23c-22.17,0-38.07,18.7-38.07,40.23c0,21.54,15.89,40.23,38.07,40.23c3.34,0,6.62-0.41,9.78-1.18C68.53,82.74,72.86,83.83,77.88,78.48z M57.99,14.85c11.09,0,20.07,12.24,20.07,27.33c0,15.09-8.99,27.33-20.07,27.33c-11.09,0-20.07-12.24-20.07-27.33C37.91,27.1,46.9,14.85,57.99,14.85z"/>
</svg> 