<svg xmlns="http://www.w3.org/2000/svg" viewBox="0 0 128 128">
  <path fill="#ff9c34" d="M37.2 107c-15.3-3.3-13.7-37.3-5.3-51 5.7-9.3 17.6-9.7 20 3.3-3.4 14-15 21.7-14.7 47.7z"/>
  <path fill="#2980b9" d="M81.4 107c15.3-3.3 13.7-37.3 5.3-51-5.7-9.3-17.6-9.7-20 3.3 3.3 14 15 21.7 14.7 47.7z"/>
  <path fill="#121212" d="M91.7 39.7c0 19-3 29.3-10.3 35-7.3 5.7-17.3 7.7-27 7.3-9.7 0-20-2-27-7.7-7-5.6-10-16-10-34.6 0-18.6 3-29 10-34.6 7-5.7 17.3-7.7 27-7.7 9.7 0 20 2 27.3 7.7 7 5.7 10 16 10 34.6zm-72.6 0c0 16.7 2.3 26 7.6 30.7 5.3 4.7 13.3 6.3 21.3 6.3 8 0 16-1.7 21.3-6.3 5.3-4.7 7.6-14 7.6-30.7 0-16.7-2.3-26-7.6-30.7-5.3-4.7-13.3-6.3-21.3-6.3-8 0-16 1.7-21.3 6.3-5.3 4.7-7.6 14-7.6 30.7z"/>
  <path fill="#121212" d="M59.3 40c-3.7-1-4.7 1.3-4.7 3.7 0 2.3 0 47.3.3 58 .3 10.7 5.7 9.3 5.3 5.7.3-7.7-.3-16.7-.3-25v-22c0-3-3-5.3-.6-20.4zM66.3 57c-1-2.7-5.3-6.7-5.3-2 0 4.7-.7 38.7 0 46.3.3 7 3.7 8.7 5.3 1.7 1.7-7 1.3-14.3 1.3-21.3V57.2l-1.3-.3z"/>
  <ellipse fill="#ffffff" cx="58.7" cy="37.3" rx="2.7" ry="3"/>
  <ellipse fill="#ffffff" cx="66" cy="53.3" rx="2.7" ry="3"/>
  <path fill="#ff9c34" d="M71 43.3c-6.7-13-29.7 10-1.3 22.7 29.3 16.7 0 37.7-1.3 12-17.4-15-19.4-38.7 2.6-34.7z"/>
  <path fill="#2980b9" d="M59.7 45.7c7.3-18.3 34 5.7 5.3 18.3-28.7 12.7.7 33.7 2 8 16-14.3 16.7-37.3-7.3-26.3z"/>
</svg> 